<svg width="32" height="30" viewBox="0 0 32 30" fill="none" xmlns="http://www.w3.org/2000/svg">
<path d="M11.33 30C12.5726 30 13.58 28.9926 13.58 27.75C13.58 26.5074 12.5726 25.5 11.33 25.5C10.0873 25.5 9.07999 26.5074 9.07999 27.75C9.07999 28.9926 10.0873 30 11.33 30Z" fill="white"/>
<path d="M25 30C26.2426 30 27.25 28.9926 27.25 27.75C27.25 26.5074 26.2426 25.5 25 25.5C23.7574 25.5 22.75 26.5074 22.75 27.75C22.75 28.9926 23.7574 30 25 30Z" fill="white"/>
<path d="M31.08 3.37C30.9869 3.25529 30.8696 3.16261 30.7365 3.09864C30.6034 3.03467 30.4577 3.00098 30.31 3H9.48999L10.14 5H29L26.33 17H11.33L6.75999 2.53C6.71056 2.37646 6.62472 2.23716 6.50979 2.12397C6.39487 2.01079 6.25427 1.92708 6.09999 1.88L1.99999 0.620002C1.87392 0.581262 1.74145 0.567733 1.61016 0.580186C1.47886 0.59264 1.3513 0.630832 1.23476 0.692583C0.999404 0.817295 0.823227 1.03039 0.744988 1.285C0.666749 1.53961 0.692858 1.81487 0.817569 2.05023C0.942281 2.28559 1.15538 2.46176 1.40999 2.54L4.99999 3.64L9.58999 18.14L7.94999 19.48L7.81999 19.61C7.41432 20.0775 7.18439 20.6718 7.16979 21.2906C7.15518 21.9094 7.35683 22.5139 7.73999 23C8.01255 23.3315 8.3589 23.5945 8.75133 23.7682C9.14376 23.9418 9.57138 24.0212 9.99999 24H26.69C26.9552 24 27.2096 23.8946 27.3971 23.7071C27.5846 23.5196 27.69 23.2652 27.69 23C27.69 22.7348 27.5846 22.4804 27.3971 22.2929C27.2096 22.1054 26.9552 22 26.69 22H9.83999C9.72484 21.9961 9.61264 21.9625 9.51425 21.9026C9.41585 21.8426 9.33458 21.7583 9.27828 21.6578C9.22199 21.5572 9.19257 21.4439 9.19286 21.3287C9.19316 21.2134 9.22317 21.1002 9.27999 21L11.69 19H27.13C27.3611 19.0057 27.5871 18.931 27.7695 18.7888C27.9518 18.6466 28.0792 18.4456 28.13 18.22L31.3 4.22C31.3304 4.07092 31.3264 3.91686 31.2883 3.76957C31.2501 3.62227 31.1789 3.48561 31.08 3.37V3.37Z" fill="white"/>
</svg>
